<svg version="1.1" id="Layer_1" xmlns="http://www.w3.org/2000/svg" xmlns:xlink="http://www.w3.org/1999/xlink" x="0px" y="0px"
 	width="100%" viewBox="0 0 300 300" enable-background="new 0 0 300 300" xml:space="preserve">
<path fill="#FFFFFF" opacity="1.000000" stroke="none" 
    d="
M164.000000,301.000000 
    C109.333344,301.000000 55.166687,301.000000 1.000022,301.000000 
    C1.000015,201.000031 1.000015,101.000053 1.000007,1.000062 
    C100.999962,1.000041 200.999924,1.000041 300.999908,1.000021 
    C300.999939,100.999939 300.999939,200.999878 300.999969,300.999908 
    C255.500000,301.000000 210.000000,301.000000 164.000000,301.000000 
M205.000000,254.575256 
    C205.000000,252.155869 205.000000,249.736481 205.000000,246.813629 
    C168.374359,246.813629 132.542831,246.813629 96.088646,246.813629 
    C97.067200,245.199387 97.563492,244.172577 98.244606,243.288116 
    C109.705582,228.405792 121.256050,213.591919 132.653152,198.660950 
    C150.441315,175.357254 168.122955,151.972244 185.863388,128.632080 
    C190.451630,122.595535 196.873413,117.209686 199.207718,110.410736 
    C201.567642,103.537209 199.919952,95.281784 199.992874,87.631386 
    C200.032562,83.467064 200.030304,79.301674 199.980896,75.137558 
    C199.965820,73.868309 199.730621,72.601685 199.591339,71.287544 
    C148.347214,71.287544 97.449577,71.287544 46.393757,71.287544 
    C46.393757,83.940239 46.393757,96.301842 46.393757,109.177917 
    C79.619301,109.177917 112.454346,109.177917 145.904251,109.177917 
    C130.445786,129.228241 115.410744,148.608109 100.508896,168.089859 
    C83.597092,190.199280 66.959976,212.520828 49.870235,234.490936 
    C44.374115,241.556580 40.817486,248.574417 41.829002,257.931702 
    C42.665611,265.670898 41.983387,273.572571 42.015419,281.402100 
    C42.021271,282.832764 42.225548,284.262634 42.338799,285.700073 
    C96.679649,285.700073 150.576324,285.700073 205.000000,285.700073 
    C205.000000,275.456604 205.000000,265.505402 205.000000,254.575256 
M204.002151,39.697987 
    C204.002151,43.319569 204.002151,46.941154 204.002151,51.051155 
    C211.184448,51.051155 217.920670,51.051155 225.138336,51.051155 
    C225.138336,58.277996 225.138336,65.011803 225.138336,71.632996 
    C230.039917,71.632996 234.431488,71.632996 239.139847,71.632996 
    C239.139847,64.660400 239.139847,58.050224 239.139847,50.997868 
    C245.880493,50.997868 252.304810,50.997868 259.141174,50.997868 
    C259.524445,46.904419 259.869354,43.220657 260.189667,39.799644 
    C252.849915,38.739700 246.150391,37.772217 238.988739,36.737995 
    C238.988739,29.894146 238.988739,23.146811 238.988739,16.295067 
    C234.105591,16.295067 229.715775,16.295067 224.825958,16.295067 
    C224.825958,23.313509 224.825958,30.048212 224.825958,37.000187 
    C218.842361,37.000187 213.358002,36.890953 207.883926,37.079910 
    C206.577316,37.125011 205.305038,38.165104 204.002151,39.697987 
z"/>
<path fill="#A8A8A8" opacity="1.000000" stroke="none" 
    d="
M205.000000,255.064728 
    C205.000000,265.505402 205.000000,275.456604 205.000000,285.700073 
    C150.576324,285.700073 96.679649,285.700073 42.338799,285.700073 
    C42.225548,284.262634 42.021271,282.832764 42.015419,281.402100 
    C41.983387,273.572571 42.665611,265.670898 41.829002,257.931702 
    C40.817486,248.574417 44.374115,241.556580 49.870235,234.490936 
    C66.959976,212.520828 83.597092,190.199280 100.508896,168.089859 
    C115.410744,148.608109 130.445786,129.228241 145.904251,109.177917 
    C112.454346,109.177917 79.619301,109.177917 46.393757,109.177917 
    C46.393757,96.301842 46.393757,83.940239 46.393757,71.287544 
    C97.449577,71.287544 148.347214,71.287544 199.591339,71.287544 
    C199.730621,72.601685 199.965820,73.868309 199.980896,75.137558 
    C200.030304,79.301674 200.032562,83.467064 199.992874,87.631386 
    C199.919952,95.281784 201.567642,103.537209 199.207718,110.410736 
    C196.873413,117.209686 190.451630,122.595535 185.863388,128.632080 
    C168.122955,151.972244 150.441315,175.357254 132.653152,198.660950 
    C121.256050,213.591919 109.705582,228.405792 98.244606,243.288116 
    C97.563492,244.172577 97.067200,245.199387 96.088646,246.813629 
    C132.542831,246.813629 168.374359,246.813629 205.000000,246.813629 
    C205.000000,249.736481 205.000000,252.155869 205.000000,255.064728 
z"/>
<path fill="#FF9000" opacity="1.000000" stroke="none" 
    d="
M204.009552,39.222771 
    C205.305038,38.165104 206.577316,37.125011 207.883926,37.079910 
    C213.358002,36.890953 218.842361,37.000187 224.825958,37.000187 
    C224.825958,30.048212 224.825958,23.313509 224.825958,16.295067 
    C229.715775,16.295067 234.105591,16.295067 238.988739,16.295067 
    C238.988739,23.146811 238.988739,29.894146 238.988739,36.737995 
    C246.150391,37.772217 252.849915,38.739700 260.189667,39.799644 
    C259.869354,43.220657 259.524445,46.904419 259.141174,50.997868 
    C252.304810,50.997868 245.880493,50.997868 239.139847,50.997868 
    C239.139847,58.050224 239.139847,64.660400 239.139847,71.632996 
    C234.431488,71.632996 230.039917,71.632996 225.138336,71.632996 
    C225.138336,65.011803 225.138336,58.277996 225.138336,51.051155 
    C217.920670,51.051155 211.184448,51.051155 204.002151,51.051155 
    C204.002151,46.941154 204.002151,43.319569 204.009552,39.222771 
z"/>
</svg>
